<?xml version="1.0" encoding="utf-8"?>
<!-- Generator: Adobe Illustrator 24.0.2, SVG Export Plug-In . SVG Version: 6.00 Build 0)  -->
<svg version="1.1" id="Capa_1" xmlns="http://www.w3.org/2000/svg" xmlns:xlink="http://www.w3.org/1999/xlink" x="0px" y="0px"
	 viewBox="0 0 41.43 41.25" style="enable-background:new 0 0 41.43 41.25;" xml:space="preserve">
<style type="text/css">
	.st0{fill:#B1B1B1;}
</style>
<g>
	<path class="st0" d="M21.58,0.32L41.1,19.84c0.43,0.43,0.43,1.14,0,1.57L21.58,40.92c-0.43,0.43-1.14,0.43-1.57,0l-0.65-0.65
		c-0.43-0.43-0.43-1.14,0-1.57L35.87,22.2H1.11C0.5,22.2,0,21.7,0,21.09v-0.92c0-0.61,0.5-1.11,1.11-1.11h34.76L19.36,2.55
		c-0.43-0.43-0.43-1.14,0-1.57l0.65-0.65C20.45-0.11,21.15-0.11,21.58,0.32z"/>
</g>
</svg>
