<?xml version="1.0" encoding="utf-8"?>
<!-- Generator: Adobe Illustrator 24.0.2, SVG Export Plug-In . SVG Version: 6.00 Build 0)  -->
<svg version="1.1" id="Capa_1" xmlns="http://www.w3.org/2000/svg" xmlns:xlink="http://www.w3.org/1999/xlink" x="0px" y="0px"
	 viewBox="0 0 41.43 41.25" style="enable-background:new 0 0 41.43 41.25;" xml:space="preserve">
<style type="text/css">
	.st0{fill:#B1B1B1;}
</style>
<g>
	<path class="st0" d="M19.84,40.92L0.33,21.41c-0.43-0.43-0.43-1.14,0-1.57L19.84,0.32c0.43-0.43,1.14-0.43,1.57,0l0.65,0.65
		c0.43,0.43,0.43,1.14,0,1.57L5.56,19.05h34.76c0.61,0,1.11,0.5,1.11,1.11v0.92c0,0.61-0.5,1.11-1.11,1.11H5.56L22.06,38.7
		c0.43,0.43,0.43,1.14,0,1.57l-0.65,0.65C20.98,41.36,20.27,41.36,19.84,40.92z"/>
</g>
</svg>
