<?xml version="1.0" encoding="utf-8"?>
<!-- Generator: Adobe Illustrator 24.0.2, SVG Export Plug-In . SVG Version: 6.00 Build 0)  -->
<svg version="1.1" id="Capa_1" xmlns="http://www.w3.org/2000/svg" xmlns:xlink="http://www.w3.org/1999/xlink" x="0px" y="0px"
	 viewBox="0 0 42.34 48.39" style="enable-background:new 0 0 42.34 48.39;" xml:space="preserve">
<style type="text/css">
	.st0{fill:#B1B1B1;}
</style>
<g>
	<path class="st0" d="M42.34,10.58v33.27c0,2.5-2.03,4.54-4.54,4.54H4.54c-2.5,0-4.54-2.03-4.54-4.54V10.58
		c0-2.5,2.03-4.54,4.54-4.54h4.54V1.13C9.07,0.51,9.58,0,10.21,0h0.76c0.63,0,1.13,0.51,1.13,1.13v4.91h18.14V1.13
		c0-0.63,0.51-1.13,1.13-1.13h0.76c0.63,0,1.13,0.51,1.13,1.13v4.91h4.54C40.31,6.05,42.34,8.08,42.34,10.58z M3.02,10.58v4.54
		h36.29v-4.54c0-0.83-0.68-1.51-1.51-1.51H4.54C3.7,9.07,3.02,9.75,3.02,10.58z M39.31,43.85V18.14H3.02v25.71
		c0,0.83,0.68,1.51,1.51,1.51H37.8C38.63,45.36,39.31,44.68,39.31,43.85z"/>
</g>
</svg>
