<?xml version="1.0" encoding="utf-8"?>
<!-- Generator: Adobe Illustrator 24.0.2, SVG Export Plug-In . SVG Version: 6.00 Build 0)  -->
<svg version="1.1" id="Capa_1" xmlns="http://www.w3.org/2000/svg" xmlns:xlink="http://www.w3.org/1999/xlink" x="0px" y="0px"
	 viewBox="0 0 53.26 47.34" style="enable-background:new 0 0 53.26 47.34;" xml:space="preserve">
<style type="text/css">
	.st0{fill:#B1B1B1;}
</style>
<g>
	<g>
		<path class="st0" d="M53.26,19.1c0,0.2-0.08,0.39-0.22,0.52L41.51,31.13c-0.29,0.29-0.76,0.29-1.05,0l-1.05-1.05
			c-0.13-0.14-0.22-0.32-0.22-0.52c0-0.2,0.08-0.39,0.22-0.53l1.57-1.57l-4.9-4.89c-1.23,0.32-2.52,0.21-3.71-0.26L10.82,45.36
			c-1.23,1.32-2.9,1.98-4.57,1.98c-1.6,0-3.2-0.6-4.42-1.83c-2.5-2.49-2.43-6.56,0.15-8.97l22.84-21.28
			c-0.86-1.4-1.09-3.06-0.68-4.61l-6.35-6.33C20.69,1.45,24.48,0,28.28,0s7.59,1.45,10.49,4.33l4.19,4.18
			c1.55,1.55,2.04,3.73,1.52,5.7l4.9,4.89l1.57-1.57c0.29-0.29,0.76-0.29,1.05,0l1.05,1.05C53.18,18.71,53.26,18.9,53.26,19.1z
			 M29.92,20.62l-3.13-3.12L4.01,38.71c-0.66,0.61-1.03,1.44-1.04,2.34c-0.01,0.89,0.33,1.74,0.96,2.37
			c0.62,0.62,1.44,0.96,2.32,0.96c0.92,0,1.78-0.37,2.4-1.04L29.92,20.62z M47.28,21.19l-4.9-4.89l-1.21-1.2l0.44-1.64
			c0.28-1.04,0-2.11-0.74-2.85l-4.2-4.18c-2.24-2.24-5.22-3.47-8.39-3.47c-2.15,0-4.22,0.57-6.03,1.64l3.99,3.98l1.21,1.21
			l-0.44,1.64c-0.28,1.04,0,2.11,0.75,2.85l4.72,4.71c0.74,0.74,1.81,1.02,2.85,0.74l1.65-0.44l1.21,1.2l4.9,4.89L47.28,21.19z"/>
	</g>
</g>
</svg>
