<?xml version="1.0" encoding="utf-8"?>
<!-- Generator: Adobe Illustrator 24.0.2, SVG Export Plug-In . SVG Version: 6.00 Build 0)  -->
<svg version="1.1" id="Capa_1" xmlns="http://www.w3.org/2000/svg" xmlns:xlink="http://www.w3.org/1999/xlink" x="0px" y="0px"
	 viewBox="0 0 47.35 47.35" style="enable-background:new 0 0 47.35 47.35;" xml:space="preserve">
<style type="text/css">
	.st0{fill:#B1B1B1;}
</style>
<g>
	<path class="st0" d="M47.35,23.68c0,13.08-10.6,23.68-23.68,23.68S0,36.75,0,23.68S10.6,0,23.68,0S47.35,10.6,47.35,23.68z
		 M23.68,3.05c-11.45,0-20.62,9.29-20.62,20.62c0,11.45,9.29,20.62,20.62,20.62c11.45,0,20.62-9.29,20.62-20.62
		C44.3,12.23,35.01,3.05,23.68,3.05z M22.33,26.47c-0.3-0.22-0.47-0.56-0.47-0.92V10.31c0-0.63,0.52-1.15,1.15-1.15h1.34
		c0.63,0,1.15,0.52,1.15,1.15v13.96l6.73,4.9c0.52,0.37,0.62,1.09,0.25,1.61l-0.78,1.08c-0.37,0.51-1.09,0.62-1.61,0.25L22.33,26.47
		z"/>
</g>
</svg>
