<?xml version="1.0" encoding="utf-8"?>
<!-- Generator: Adobe Illustrator 24.0.2, SVG Export Plug-In . SVG Version: 6.00 Build 0)  -->
<svg version="1.1" id="Capa_1" xmlns="http://www.w3.org/2000/svg" xmlns:xlink="http://www.w3.org/1999/xlink" x="0px" y="0px"
	 viewBox="0 0 56.89 42.16" style="enable-background:new 0 0 56.89 42.16;" xml:space="preserve">
<style type="text/css">
	.st0{fill:#B1B1B1;}
</style>
<g>
	<path class="st0" d="M4.52,42.16C2.03,42.16,0,40.14,0,37.65V4.51C0,2.02,2.03,0,4.52,0h47.85c2.49,0,4.52,2.02,4.52,4.51v33.14
		c0,2.49-2.03,4.51-4.52,4.51H4.52z M4.52,1.67c-1.57,0-2.85,1.28-2.85,2.84v33.14c0,1.57,1.28,2.84,2.85,2.84h47.85
		c1.57,0,2.85-1.28,2.85-2.84V4.51c0-1.57-1.28-2.84-2.85-2.84H4.52z M7.74,34.8c-0.21,0-0.38-0.17-0.38-0.38V31.2
		c0-0.47,0.18-0.91,0.51-1.24L18,19.84c0.33-0.33,0.77-0.52,1.24-0.52c0.47,0,0.91,0.18,1.24,0.52l4.28,4.28L36.4,12.48
		c0.33-0.33,0.77-0.52,1.24-0.52c0.47,0,0.91,0.18,1.24,0.52L49.01,22.6c0.33,0.33,0.51,0.77,0.51,1.24v10.58
		c0,0.21-0.17,0.38-0.38,0.38H7.74z M9.03,31.17v1.96h38.82V23.8L37.64,13.6L24.76,26.48l-5.52-5.52L9.03,31.17z M11.88,17.31
		c-3,0-5.44-2.44-5.44-5.44c0-3,2.44-5.43,5.44-5.43c3,0,5.43,2.44,5.43,5.43C17.31,14.87,14.88,17.31,11.88,17.31z M11.88,8.11
		c-2.08,0-3.77,1.69-3.77,3.77c0,2.08,1.69,3.77,3.77,3.77c2.08,0,3.77-1.69,3.77-3.77C15.65,9.8,13.96,8.11,11.88,8.11z"/>
</g>
</svg>
