<?xml version="1.0" encoding="utf-8"?>
<!-- Generator: Adobe Illustrator 24.0.2, SVG Export Plug-In . SVG Version: 6.00 Build 0)  -->
<svg version="1.1" id="Capa_1" xmlns="http://www.w3.org/2000/svg" xmlns:xlink="http://www.w3.org/1999/xlink" x="0px" y="0px"
	 viewBox="0 0 47.34 47.34" style="enable-background:new 0 0 47.34 47.34;" xml:space="preserve">
<style type="text/css">
	.st0{fill:#B1B1B1;}
</style>
<g>
	<g>
		<path class="st0" d="M46.38,12.64l-2.7,2.7c-1.57,1.56-3.66,2.42-5.83,2.42c-2.27,0-3.87-0.91-4.69-1.48L21.39,28.05l5.23,5.23
			c1.16,1.16,1.16,3.03,0,4.18l-6.28,6.28c-2.61,2.61-7.59,3.6-11.82,3.6c-3.27,0-6.1-0.6-7.01-1.51C-0.58,43.74-1.02,31.62,3.6,27
			l6.28-6.28c0.58-0.58,1.34-0.87,2.09-0.87c0.76,0,1.52,0.29,2.09,0.87l5.23,5.23l11.77-11.77c-0.57-0.83-1.48-2.42-1.48-4.69
			c0-2.17,0.85-4.26,2.42-5.83l2.7-2.7C35.35,0.32,36.2,0,37.04,0s1.69,0.32,2.34,0.97l7,7C47.66,9.25,47.66,11.35,46.38,12.64z
			 M24.52,35.37L11.97,22.82h0L5.7,29.09c-3.33,3.33-3.06,12.57-2.07,14.61c2.2,0.97,11.23,1.33,14.62-2.06L24.52,35.37z
			 M44.28,10.06l-7-7c-0.14-0.13-0.36-0.13-0.49,0l-2.7,2.7c-4.91,4.91,2.61,12.37,7.49,7.49l2.7-2.7
			C44.42,10.41,44.42,10.19,44.28,10.06z"/>
	</g>
</g>
</svg>
