<?xml version="1.0" encoding="utf-8"?>
<!-- Generator: Adobe Illustrator 24.0.2, SVG Export Plug-In . SVG Version: 6.00 Build 0)  -->
<svg version="1.1" id="Capa_1" xmlns="http://www.w3.org/2000/svg" xmlns:xlink="http://www.w3.org/1999/xlink" x="0px" y="0px"
	 viewBox="0 0 47.34 47.34" style="enable-background:new 0 0 47.34 47.34;" xml:space="preserve">
<style type="text/css">
	.st0{fill:#B1B1B1;}
</style>
<g>
	<g>
		<path class="st0" d="M47.34,2.96v11.84c0,1.64-1.32,2.96-2.96,2.96v28.11c0,0.82-0.67,1.48-1.48,1.48H4.44
			c-0.81,0-1.48-0.66-1.48-1.48V17.75C1.32,17.75,0,16.43,0,14.79V2.96C0,1.32,1.32,0,2.96,0h41.43C46.02,0,47.34,1.32,47.34,2.96z
			 M44.38,2.96H2.96v11.84h41.43V2.96z M5.92,29.59h8.88V17.75H5.92V29.59z M29.59,44.38V32.55H5.92v11.84H29.59z M41.43,17.75
			H17.75v11.84h23.67V17.75z M41.43,32.55h-8.88v11.84h8.88V32.55z"/>
	</g>
</g>
</svg>
