<?xml version="1.0" encoding="utf-8"?>
<!-- Generator: Adobe Illustrator 24.0.2, SVG Export Plug-In . SVG Version: 6.00 Build 0)  -->
<svg version="1.1" id="Capa_1" xmlns="http://www.w3.org/2000/svg" xmlns:xlink="http://www.w3.org/1999/xlink" x="0px" y="0px"
	 viewBox="0 0 35.51 44.38" style="enable-background:new 0 0 35.51 44.38;" xml:space="preserve">
<style type="text/css">
	.st0{fill:#B1B1B1;}
</style>
<g>
	<g>
		<path class="st0" d="M35.51,2.96v15.47l-5.18,4.44c0,3.95-0.15,8.64,0.98,15.59h-3c-1.07-6.87-0.94-11.16-0.94-16.95l5.18-4.44
			V2.96h-7.4v5.92h-2.96V2.96h-8.87v5.92h-2.96l-0.01-5.92h-7.4v14.12l5.18,4.44c0,5.73,0.13,10.06-0.94,16.95h-3
			c1.13-6.96,0.98-11.65,0.98-15.59L0,18.43V2.96C0,1.33,1.33,0,2.96,0h29.59C34.18,0,35.51,1.33,35.51,2.96z M35.51,42.16v1.48
			c0,0.41-0.33,0.74-0.74,0.74H0.74C0.33,44.38,0,44.05,0,43.64v-1.48c0-0.41,0.33-0.74,0.74-0.74h34.03
			C35.18,41.43,35.51,41.76,35.51,42.16z M22.19,19.23v7.4h-8.88v-7.4c0-2.45,1.99-4.44,4.44-4.44
			C20.2,14.8,22.19,16.79,22.19,19.23z M19.23,19.23c0-0.82-0.66-1.48-1.48-1.48c-0.82,0-1.48,0.66-1.48,1.48v4.44h2.96V19.23z"/>
	</g>
</g>
</svg>
