<?xml version="1.0" encoding="utf-8"?>
<!-- Generator: Adobe Illustrator 24.0.2, SVG Export Plug-In . SVG Version: 6.00 Build 0)  -->
<svg version="1.1" id="Capa_1" xmlns="http://www.w3.org/2000/svg" xmlns:xlink="http://www.w3.org/1999/xlink" x="0px" y="0px"
	 viewBox="0 0 49.47 47.35" style="enable-background:new 0 0 49.47 47.35;" xml:space="preserve">
<style type="text/css">
	.st0{fill:#B1B1B1;}
</style>
<g>
	<g>
		<path class="st0" d="M48.57,20.91l-9.77,9.52l2.31,13.45c0.42,2.43-2.15,4.24-4.29,3.12l-12.09-6.35L12.65,47
			c-2.14,1.14-4.71-0.69-4.29-3.12l2.31-13.45L0.9,20.91c-1.76-1.71-0.79-4.7,1.64-5.05l13.51-1.97l6.04-12.24
			c1.09-2.21,4.23-2.18,5.31,0l6.04,12.24l13.51,1.97C49.36,16.21,50.33,19.2,48.57,20.91z M46.51,18.78L31.47,16.6L24.74,2.96
			L18,16.6L2.96,18.78L13.85,29.4l-2.57,14.98l13.45-7.07l13.46,7.06l-2.57-14.98L46.51,18.78z"/>
	</g>
</g>
</svg>
