<?xml version="1.0" encoding="utf-8"?>
<!-- Generator: Adobe Illustrator 24.0.2, SVG Export Plug-In . SVG Version: 6.00 Build 0)  -->
<svg version="1.1" id="Capa_1" xmlns="http://www.w3.org/2000/svg" xmlns:xlink="http://www.w3.org/1999/xlink" x="0px" y="0px"
	 viewBox="0 0 59.18 47.35" style="enable-background:new 0 0 59.18 47.35;" xml:space="preserve">
<style type="text/css">
	.st0{fill:#B1B1B1;}
</style>
<g>
	<g>
		<path class="st0" d="M9.86,15.58l-1.91,4.59c-0.1,0.2-0.31,0.34-0.55,0.34s-0.45-0.14-0.55-0.34l-1.91-4.59H4.92l-4.58-1.91
			C0.15,13.56,0.01,13.35,0,13.12h0c0.01-0.24,0.15-0.44,0.34-0.55l4.59-1.92h0l1.91-4.59c0.1-0.2,0.31-0.34,0.55-0.34
			s0.45,0.14,0.55,0.34l1.91,4.59h0.01l4.58,1.91c0.19,0.11,0.33,0.32,0.34,0.55c-0.01,0.24-0.15,0.44-0.34,0.55l-4.58,1.91
			L9.86,15.58L9.86,15.58z M44.22,43.29l2.82,1.17c-1.04,1.73-2.92,2.88-5.08,2.88h-16.7c0,0,0,0.01,0,0.01
			c-2.06,0-3.87-1.05-4.93-2.65L9.82,28.86C9.23,28.02,8.88,27,8.88,25.9c0-1.76,0.88-3.31,2.21-4.25c2.77-1.94,5.6-0.47,6.67,0.62
			V8.14c0-2.86,2.33-5.17,5.18-5.17c0.89,0,1.73,0.23,2.46,0.62C26.08,1.51,28.03,0,30.34,0s4.26,1.51,4.93,3.59
			c0.73-0.4,1.58-0.63,2.47-0.63c2.86,0,5.18,2.32,5.18,5.18v2.72c0.67-0.32,1.42-0.5,2.2-0.5h0.01c0,0,0,0,0,0
			c2.85,0,5.17,2.31,5.17,5.17v0.01v11.13c0,1.05-0.05,2.11-0.16,3.16c-0.67,0.34-1.22,0.88-1.57,1.54l-0.04,0.09l-0.04,0.09
			l-1.44,3.47l-0.86,0.36l0.58-2.91c0.38-1.89,0.57-3.81,0.57-5.81V15.54c0-1.23-0.99-2.22-2.22-2.22c-1.22,0-2.22,0.99-2.22,2.22
			v7.4c0,0.41-0.33,0.74-0.74,0.74h-1.48c-0.41,0-0.74-0.33-0.74-0.74V8.14c0-1.23-0.99-2.22-2.22-2.22c-1.22,0-2.22,0.99-2.22,2.22
			v14.79c0,0.41-0.33,0.74-0.74,0.74h-1.48c-0.41,0-0.74-0.33-0.74-0.74V5.18c0-1.23-0.99-2.22-2.22-2.22
			c-1.22,0-2.22,0.99-2.22,2.22v17.75c0,0.26-0.16,0.46-0.37,0.59c-0.25,0.02-0.49,0.08-0.72,0.15H25.9c-0.41,0-0.74-0.33-0.74-0.74
			V8.14c0-1.23-0.99-2.22-2.22-2.22c-1.23,0-2.22,0.99-2.22,2.22v21.09c0,0,0,0,0,0.01c0,0.41-0.33,0.74-0.74,0.74
			c-0.25,0-0.48-0.13-0.61-0.32l-3.5-5.03c-0.31-0.45-1.63-1.57-3.09-0.54c-0.57,0.4-0.95,1.07-0.95,1.82c0,0.47,0.15,0.91,0.4,1.27
			L22.8,43.06c0.53,0.8,1.44,1.32,2.47,1.32h16.7C42.88,44.38,43.69,43.95,44.22,43.29z M29.59,29.39l2.75,1.15
			c0.12,0.06,0.2,0.18,0.2,0.33c0,0.14-0.08,0.27-0.2,0.33l-2.75,1.15l-1.15,2.75c-0.06,0.12-0.19,0.2-0.33,0.2
			c-0.15,0-0.27-0.08-0.33-0.2l-1.15-2.75l-2.75-1.15c-0.12-0.06-0.2-0.18-0.2-0.33c0-0.15,0.08-0.27,0.2-0.33l2.75-1.15l1.15-2.75
			c0.06-0.12,0.19-0.2,0.33-0.2c0.15,0,0.27,0.08,0.33,0.2L29.59,29.39z M59.17,39.74c-0.01,0.24-0.15,0.44-0.34,0.55l-4.58,1.91
			h-0.01l-1.91,4.59c-0.1,0.2-0.31,0.34-0.55,0.34S51.33,47,51.23,46.8l-1.91-4.59h-0.01l-4.58-1.91c-0.19-0.11-0.33-0.32-0.34-0.55
			c0.01-0.24,0.15-0.44,0.34-0.55l4.59-1.92h0l1.91-4.59c0.1-0.2,0.31-0.34,0.55-0.34c0.24,0,0.45,0.14,0.55,0.34l1.91,4.59h0.01
			l4.58,1.91C59.03,39.3,59.17,39.5,59.17,39.74L59.17,39.74z"/>
	</g>
</g>
</svg>
