<?xml version="1.0" encoding="utf-8"?>
<!-- Generator: Adobe Illustrator 24.0.2, SVG Export Plug-In . SVG Version: 6.00 Build 0)  -->
<svg version="1.1" id="Capa_1" xmlns="http://www.w3.org/2000/svg" xmlns:xlink="http://www.w3.org/1999/xlink" x="0px" y="0px"
	 viewBox="0 0 42.59 42.59" style="enable-background:new 0 0 42.59 42.59;" xml:space="preserve">
<style type="text/css">
	.st0{fill:#B1B1B1;}
</style>
<g>
	<path class="st0" d="M42.59,12.53v25.49c0,2.52-2.04,4.56-4.56,4.56H4.56C2.04,42.59,0,40.54,0,38.02V4.56C0,2.04,2.04,0,4.56,0
		h25.49c1.26,0,2.4,0.51,3.23,1.33l7.97,7.97C42.07,10.13,42.59,11.28,42.59,12.53z M39.54,12.53
		C39.54,12.53,39.54,12.53,39.54,12.53c0-0.42-0.17-0.8-0.44-1.07l-7.97-7.97c-0.19-0.19-0.43-0.33-0.71-0.4v9.84
		c0,1.26-1.02,2.28-2.28,2.28H8.37c-1.26,0-2.28-1.02-2.28-2.28V3.04H4.56c-0.84,0-1.52,0.68-1.52,1.52v33.46
		c0,0.84,0.68,1.52,1.52,1.52h33.46c0.84,0,1.52-0.68,1.52-1.52V12.53z M9.13,3.04v9.13h18.25V3.04H9.13z M29.66,27.38
		c0,4.61-3.75,8.36-8.37,8.36s-8.37-3.75-8.37-8.36c0-4.61,3.75-8.37,8.37-8.37S29.66,22.76,29.66,27.38z M26.62,27.38
		c0-2.94-2.39-5.32-5.32-5.32s-5.32,2.39-5.32,5.32c0,2.93,2.39,5.32,5.32,5.32S26.62,30.31,26.62,27.38z"/>
</g>
</svg>
