<?xml version="1.0" encoding="utf-8"?>
<!-- Generator: Adobe Illustrator 24.0.2, SVG Export Plug-In . SVG Version: 6.00 Build 0)  -->
<svg version="1.1" id="Capa_1" xmlns="http://www.w3.org/2000/svg" xmlns:xlink="http://www.w3.org/1999/xlink" x="0px" y="0px"
	 viewBox="0 0 40.84 40.84" style="enable-background:new 0 0 40.84 40.84;" xml:space="preserve">
<style type="text/css">
	.st0{fill:#B1B1B1;}
</style>
<g>
	<path class="st0" d="M39.34,11.7L11.23,39.81l-9.11,1.01c-1.22,0.14-2.25-0.89-2.11-2.11l1.01-9.11L29.13,1.5
		c1.99-1.99,5.23-1.99,7.22,0l2.99,2.99C41.33,6.48,41.33,9.71,39.34,11.7z M11.65,35.79v-2.77H7.82v-3.83H5.05l-1.58,1.58
		l-0.52,4.71l2.42,2.42l4.7-0.52L11.65,35.79z M25.15,9.09L7.28,26.96h2.77v3.83h3.83v2.77l17.87-17.87L25.15,9.09z M37.54,6.29
		L34.55,3.3c-1-1-2.61-1-3.61,0l-3.98,3.98l6.6,6.6l3.98-3.98C38.53,8.9,38.53,7.29,37.54,6.29z"/>
</g>
</svg>
