<?xml version="1.0" encoding="utf-8"?>
<!-- Generator: Adobe Illustrator 24.0.2, SVG Export Plug-In . SVG Version: 6.00 Build 0)  -->
<svg version="1.1" id="Capa_1" xmlns="http://www.w3.org/2000/svg" xmlns:xlink="http://www.w3.org/1999/xlink" x="0px" y="0px"
	 viewBox="0 0 36.87 42.14" style="enable-background:new 0 0 36.87 42.14;" xml:space="preserve">
<style type="text/css">
	.st0{fill:#B1B1B1;}
</style>
<g>
	<path class="st0" d="M36.87,34.77v3.42c0,2.18-1.77,3.95-3.95,3.95H3.95C1.77,42.14,0,40.37,0,38.19v-3.42
		C0,28.66,4.95,23.7,11.06,23.7c2.37,0,3.5,1.32,7.37,1.32s5.01-1.32,7.37-1.32C31.92,23.7,36.87,28.66,36.87,34.77z M34.24,34.77
		c0-4.65-3.78-8.43-8.43-8.43c-1.61,0-3.22,1.32-7.37,1.32c-4.16,0-5.76-1.32-7.37-1.32c-4.65,0-8.43,3.78-8.43,8.43v3.42
		c0,0.72,0.59,1.32,1.32,1.32h28.97c0.72,0,1.32-0.59,1.32-1.32V34.77z M7.9,10.54C7.9,4.71,12.62,0,18.44,0
		c5.82,0,10.54,4.71,10.54,10.54c0,5.82-4.72,10.54-10.54,10.54C12.62,21.07,7.9,16.35,7.9,10.54z M10.54,10.54
		c0,4.35,3.55,7.9,7.9,7.9s7.9-3.55,7.9-7.9s-3.55-7.9-7.9-7.9S10.54,6.18,10.54,10.54z"/>
</g>
</svg>
