<?xml version="1.0" encoding="utf-8"?>
<!-- Generator: Adobe Illustrator 24.0.2, SVG Export Plug-In . SVG Version: 6.00 Build 0)  -->
<svg version="1.1" id="Capa_1" xmlns="http://www.w3.org/2000/svg" xmlns:xlink="http://www.w3.org/1999/xlink" x="0px" y="0px"
	 viewBox="0 0 29.59 47.34" style="enable-background:new 0 0 29.59 47.34;" xml:space="preserve">
<style type="text/css">
	.st0{fill:#B1B1B1;}
</style>
<g>
	<g>
		<path class="st0" d="M29.29,18.12L13.01,46.23c-0.41,0.7-1.16,1.11-1.92,1.11c-1.41,0-2.49-1.32-2.15-2.73l4.26-17.98H2.22
			c-1.34,0-2.38-1.18-2.2-2.51L2.98,1.93C3.13,0.82,4.07,0,5.18,0h13.32c1.45,0,2.51,1.39,2.14,2.79l-3.94,12h10.67
			C29.08,14.79,30.15,16.65,29.29,18.12z M26.09,17.75H12.61l1.28-3.88l3.58-10.91H5.83l-2.76,20.7h13.87l-0.86,3.65l-3.1,13.09
			L26.09,17.75z"/>
	</g>
</g>
</svg>
